<mxfile host="app.diagrams.net" agent="Mozilla/5.0 (Windows NT 10.0; Win64; x64) AppleWebKit/537.36 (KHTML, like Gecko) Chrome/138.0.0.0 Safari/537.36" version="27.1.6">
  <diagram name="Página-1" id="e45OjPIBaFHz5NlUAJ0t">
    <mxGraphModel grid="1" page="1" gridSize="10" guides="1" tooltips="1" connect="1" arrows="1" fold="1" pageScale="1" pageWidth="827" pageHeight="1169" math="0" shadow="0">
      <root>
        <mxCell id="0" />
        <mxCell id="1" parent="0" />
        <mxCell id="2QU0HHwjT5UGIkDu3ld_-37" value="CU020 Editar recurso" style="swimlane;childLayout=stackLayout;resizeParent=1;resizeParentMax=0;startSize=20;horizontal=0;horizontalStack=1;fontStyle=1" vertex="1" parent="1">
          <mxGeometry x="850" y="100" width="710" height="690" as="geometry">
            <mxRectangle x="200" y="80" width="40" height="50" as="alternateBounds" />
          </mxGeometry>
        </mxCell>
        <mxCell id="2QU0HHwjT5UGIkDu3ld_-45" style="edgeStyle=orthogonalEdgeStyle;rounded=0;orthogonalLoop=1;jettySize=auto;html=1;entryX=0;entryY=0.5;entryDx=0;entryDy=0;strokeColor=light-dark(#ff0000, #ededed);" edge="1" parent="2QU0HHwjT5UGIkDu3ld_-37" source="12j2pwyk7F5ALPcIn0DW-1" target="2QU0HHwjT5UGIkDu3ld_-49">
          <mxGeometry relative="1" as="geometry">
            <Array as="points" />
            <mxPoint x="280" y="110" as="sourcePoint" />
          </mxGeometry>
        </mxCell>
        <mxCell id="2QU0HHwjT5UGIkDu3ld_-38" value="Administrador" style="swimlane;startSize=20;" vertex="1" parent="2QU0HHwjT5UGIkDu3ld_-37">
          <mxGeometry x="20" width="290" height="690" as="geometry" />
        </mxCell>
        <mxCell id="2QU0HHwjT5UGIkDu3ld_-39" value="" style="ellipse;html=1;shape=startState;fillColor=#000000;strokeColor=#ff0000;fillStyle=auto;" vertex="1" parent="2QU0HHwjT5UGIkDu3ld_-38">
          <mxGeometry x="20" y="25" width="30" height="30" as="geometry" />
        </mxCell>
        <mxCell id="2QU0HHwjT5UGIkDu3ld_-41" value="" style="edgeStyle=orthogonalEdgeStyle;html=1;verticalAlign=bottom;endArrow=open;endSize=8;strokeColor=#ff0000;rounded=0;" edge="1" parent="2QU0HHwjT5UGIkDu3ld_-38" source="2QU0HHwjT5UGIkDu3ld_-39" target="12j2pwyk7F5ALPcIn0DW-1">
          <mxGeometry relative="1" as="geometry">
            <mxPoint x="165" y="55" as="targetPoint" />
            <mxPoint x="340" y="320" as="sourcePoint" />
          </mxGeometry>
        </mxCell>
        <mxCell id="19LpKT9WDkHHw6tPcPYI-1" value="Pulsar botón &quot;Editar&quot;" style="rounded=1;whiteSpace=wrap;html=1;arcSize=40;fontColor=#000000;fillColor=#ffffc0;strokeColor=#ff0000;" vertex="1" parent="2QU0HHwjT5UGIkDu3ld_-38">
          <mxGeometry x="85" y="190" width="120" height="50" as="geometry" />
        </mxCell>
        <mxCell id="19LpKT9WDkHHw6tPcPYI-8" value="Diligenciar campos de edición" style="rounded=1;whiteSpace=wrap;html=1;arcSize=40;fontColor=#000000;fillColor=#ffffc0;strokeColor=#ff0000;" vertex="1" parent="2QU0HHwjT5UGIkDu3ld_-38">
          <mxGeometry x="85" y="355" width="120" height="40" as="geometry" />
        </mxCell>
        <mxCell id="YuJ5mlt1hKXPfRfszWY7-16" value="Pulsar el botón &quot;Guardar&quot;" style="rounded=1;whiteSpace=wrap;html=1;arcSize=40;fontColor=#000000;fillColor=#ffffc0;strokeColor=#ff0000;" vertex="1" parent="2QU0HHwjT5UGIkDu3ld_-38">
          <mxGeometry x="85" y="430" width="120" height="40" as="geometry" />
        </mxCell>
        <mxCell id="19LpKT9WDkHHw6tPcPYI-9" value="" style="edgeStyle=orthogonalEdgeStyle;html=1;verticalAlign=bottom;endArrow=open;endSize=8;strokeColor=#ff0000;rounded=0;exitX=0.5;exitY=1;exitDx=0;exitDy=0;entryX=0.5;entryY=0;entryDx=0;entryDy=0;" edge="1" parent="2QU0HHwjT5UGIkDu3ld_-38" source="19LpKT9WDkHHw6tPcPYI-8" target="YuJ5mlt1hKXPfRfszWY7-16">
          <mxGeometry relative="1" as="geometry">
            <mxPoint x="404.9999999999998" y="375" as="targetPoint" />
            <mxPoint x="145" y="390" as="sourcePoint" />
            <Array as="points">
              <mxPoint x="145" y="410" />
              <mxPoint x="145" y="410" />
            </Array>
          </mxGeometry>
        </mxCell>
        <mxCell id="12j2pwyk7F5ALPcIn0DW-1" value="Pulsa el apartado &quot;Recursos&quot;" style="rounded=1;whiteSpace=wrap;html=1;arcSize=40;fontColor=#000000;fillColor=#ffffc0;strokeColor=#ff0000;" vertex="1" parent="2QU0HHwjT5UGIkDu3ld_-38">
          <mxGeometry x="85" y="80" width="120" height="50" as="geometry" />
        </mxCell>
        <mxCell id="2QU0HHwjT5UGIkDu3ld_-47" value="Sistema" style="swimlane;startSize=20;" vertex="1" parent="2QU0HHwjT5UGIkDu3ld_-37">
          <mxGeometry x="310" width="400" height="690" as="geometry" />
        </mxCell>
        <mxCell id="2QU0HHwjT5UGIkDu3ld_-49" value="Mostrar apartado" style="rounded=1;whiteSpace=wrap;html=1;arcSize=40;fontColor=#000000;fillColor=#ffffc0;strokeColor=#ff0000;" vertex="1" parent="2QU0HHwjT5UGIkDu3ld_-47">
          <mxGeometry x="150" y="80" width="120" height="50" as="geometry" />
        </mxCell>
        <mxCell id="2QU0HHwjT5UGIkDu3ld_-42" value="" style="ellipse;html=1;shape=endState;fillColor=#000000;strokeColor=#ff0000;" vertex="1" parent="2QU0HHwjT5UGIkDu3ld_-47">
          <mxGeometry x="300" y="640" width="30" height="30" as="geometry" />
        </mxCell>
        <mxCell id="YuJ5mlt1hKXPfRfszWY7-3" value="Mostrar listado de recursos" style="rounded=1;whiteSpace=wrap;html=1;arcSize=40;fontColor=#000000;fillColor=#ffffc0;strokeColor=#ff0000;" vertex="1" parent="2QU0HHwjT5UGIkDu3ld_-47">
          <mxGeometry x="30" y="190" width="120" height="50" as="geometry" />
        </mxCell>
        <mxCell id="2QU0HHwjT5UGIkDu3ld_-48" style="edgeStyle=orthogonalEdgeStyle;rounded=0;orthogonalLoop=1;jettySize=auto;html=1;strokeColor=light-dark(#ff0000, #ededed);exitX=0.5;exitY=1;exitDx=0;exitDy=0;entryX=1;entryY=0.5;entryDx=0;entryDy=0;" edge="1" parent="2QU0HHwjT5UGIkDu3ld_-47" source="2QU0HHwjT5UGIkDu3ld_-49" target="YuJ5mlt1hKXPfRfszWY7-3">
          <mxGeometry relative="1" as="geometry">
            <mxPoint x="-85" y="215" as="targetPoint" />
            <Array as="points">
              <mxPoint x="210" y="215" />
            </Array>
          </mxGeometry>
        </mxCell>
        <mxCell id="YuJ5mlt1hKXPfRfszWY7-14" value="Mostrar campos para diligenciar" style="rounded=1;whiteSpace=wrap;html=1;arcSize=40;fontColor=#000000;fillColor=#ffffc0;strokeColor=#ff0000;" vertex="1" parent="2QU0HHwjT5UGIkDu3ld_-47">
          <mxGeometry x="40" y="265" width="120" height="40" as="geometry" />
        </mxCell>
        <mxCell id="YuJ5mlt1hKXPfRfszWY7-17" value="¿Datos válidos?" style="rhombus;whiteSpace=wrap;html=1;fontColor=#000000;fillColor=#ffffc0;strokeColor=#ff0000;" vertex="1" parent="2QU0HHwjT5UGIkDu3ld_-47">
          <mxGeometry x="150" y="430" width="80" height="40" as="geometry" />
        </mxCell>
        <mxCell id="YuJ5mlt1hKXPfRfszWY7-18" value="si" style="edgeStyle=orthogonalEdgeStyle;html=1;align=left;verticalAlign=bottom;endArrow=open;endSize=8;strokeColor=#ff0000;rounded=0;entryX=0.5;entryY=0;entryDx=0;entryDy=0;" edge="1" parent="2QU0HHwjT5UGIkDu3ld_-47" source="YuJ5mlt1hKXPfRfszWY7-17" target="YuJ5mlt1hKXPfRfszWY7-23">
          <mxGeometry x="-1" relative="1" as="geometry">
            <mxPoint x="230" y="430" as="targetPoint" />
          </mxGeometry>
        </mxCell>
        <mxCell id="YuJ5mlt1hKXPfRfszWY7-20" value="Mostrar mensaje de error" style="rounded=1;whiteSpace=wrap;html=1;arcSize=40;fontColor=#000000;fillColor=#ffffc0;strokeColor=#ff0000;" vertex="1" parent="2QU0HHwjT5UGIkDu3ld_-47">
          <mxGeometry x="30" y="530" width="120" height="40" as="geometry" />
        </mxCell>
        <mxCell id="YuJ5mlt1hKXPfRfszWY7-19" value="no" style="edgeStyle=orthogonalEdgeStyle;html=1;align=left;verticalAlign=top;endArrow=open;endSize=8;strokeColor=#ff0000;rounded=0;entryX=1;entryY=0.5;entryDx=0;entryDy=0;" edge="1" parent="2QU0HHwjT5UGIkDu3ld_-47" source="YuJ5mlt1hKXPfRfszWY7-17" target="YuJ5mlt1hKXPfRfszWY7-20">
          <mxGeometry x="-1" relative="1" as="geometry">
            <mxPoint x="90" y="510" as="targetPoint" />
            <Array as="points">
              <mxPoint x="190" y="550" />
            </Array>
          </mxGeometry>
        </mxCell>
        <mxCell id="YuJ5mlt1hKXPfRfszWY7-24" style="edgeStyle=orthogonalEdgeStyle;rounded=0;orthogonalLoop=1;jettySize=auto;html=1;entryX=0.5;entryY=0;entryDx=0;entryDy=0;strokeColor=light-dark(#FF0000,#EDEDED);" edge="1" parent="2QU0HHwjT5UGIkDu3ld_-47" source="YuJ5mlt1hKXPfRfszWY7-23" target="2QU0HHwjT5UGIkDu3ld_-42">
          <mxGeometry relative="1" as="geometry" />
        </mxCell>
        <mxCell id="YuJ5mlt1hKXPfRfszWY7-23" value="Mostrar mensaje de éxito" style="rounded=1;whiteSpace=wrap;html=1;arcSize=40;fontColor=#000000;fillColor=#ffffc0;strokeColor=#ff0000;" vertex="1" parent="2QU0HHwjT5UGIkDu3ld_-47">
          <mxGeometry x="255" y="520" width="120" height="40" as="geometry" />
        </mxCell>
        <mxCell id="YuJ5mlt1hKXPfRfszWY7-4" style="edgeStyle=orthogonalEdgeStyle;rounded=0;orthogonalLoop=1;jettySize=auto;html=1;entryX=1;entryY=0.5;entryDx=0;entryDy=0;strokeColor=light-dark(#ff0000, #ededed);" edge="1" parent="2QU0HHwjT5UGIkDu3ld_-37" source="YuJ5mlt1hKXPfRfszWY7-3" target="19LpKT9WDkHHw6tPcPYI-1">
          <mxGeometry relative="1" as="geometry" />
        </mxCell>
        <mxCell id="19LpKT9WDkHHw6tPcPYI-2" style="edgeStyle=orthogonalEdgeStyle;rounded=0;orthogonalLoop=1;jettySize=auto;html=1;entryX=0;entryY=0.5;entryDx=0;entryDy=0;strokeColor=light-dark(#ff0000, #ededed);" edge="1" parent="2QU0HHwjT5UGIkDu3ld_-37" source="19LpKT9WDkHHw6tPcPYI-1" target="YuJ5mlt1hKXPfRfszWY7-14">
          <mxGeometry relative="1" as="geometry">
            <mxPoint x="434.9999999999998" y="270" as="targetPoint" />
            <Array as="points">
              <mxPoint x="165" y="285" />
            </Array>
          </mxGeometry>
        </mxCell>
        <mxCell id="YuJ5mlt1hKXPfRfszWY7-15" style="edgeStyle=orthogonalEdgeStyle;rounded=0;orthogonalLoop=1;jettySize=auto;html=1;entryX=0.5;entryY=0;entryDx=0;entryDy=0;strokeColor=light-dark(#ff0000, #ededed);" edge="1" parent="2QU0HHwjT5UGIkDu3ld_-37" source="YuJ5mlt1hKXPfRfszWY7-14" target="19LpKT9WDkHHw6tPcPYI-8">
          <mxGeometry relative="1" as="geometry">
            <Array as="points">
              <mxPoint x="410" y="330" />
              <mxPoint x="165" y="330" />
            </Array>
          </mxGeometry>
        </mxCell>
        <mxCell id="YuJ5mlt1hKXPfRfszWY7-21" style="edgeStyle=orthogonalEdgeStyle;rounded=0;orthogonalLoop=1;jettySize=auto;html=1;entryX=0;entryY=0.5;entryDx=0;entryDy=0;strokeColor=light-dark(#ff0000, #ededed);" edge="1" parent="2QU0HHwjT5UGIkDu3ld_-37" source="YuJ5mlt1hKXPfRfszWY7-20" target="19LpKT9WDkHHw6tPcPYI-8">
          <mxGeometry relative="1" as="geometry" />
        </mxCell>
        <mxCell id="YuJ5mlt1hKXPfRfszWY7-22" style="edgeStyle=orthogonalEdgeStyle;rounded=0;orthogonalLoop=1;jettySize=auto;html=1;entryX=0;entryY=0.5;entryDx=0;entryDy=0;strokeColor=light-dark(#ff0000, #ededed);" edge="1" parent="2QU0HHwjT5UGIkDu3ld_-37" source="YuJ5mlt1hKXPfRfszWY7-16" target="YuJ5mlt1hKXPfRfszWY7-17">
          <mxGeometry relative="1" as="geometry" />
        </mxCell>
      </root>
    </mxGraphModel>
  </diagram>
</mxfile>
